<svg width="28" height="28" viewBox="0 0 28 28" fill="none" xmlns="http://www.w3.org/2000/svg">
<path d="M25.2 0.000427716C25.2 13.1448 14.5444 23.8004 1.39999 23.8004C0.930022 23.8004 0.463234 23.7868 0 23.7599V26.5642C0.463623 26.5882 0.930387 26.6004 1.39999 26.6004C16.0908 26.6004 28 14.6912 28 0.000427716C28 0.000557773 28 0.000297659 28 0.000427716H25.2C25.2 0.000557773 25.2 0.000297659 25.2 0.000427716Z" fill="#2F302C"/>
<path d="M23.8 3.75447e-05C23.8 -9.25128e-05 23.8 0.000167602 23.8 3.75447e-05C23.8 12.3712 13.7712 22.4004 1.39999 22.4004C0.929804 22.4004 0.462999 22.3859 0 22.3574V19.5512C0.46242 19.5838 0.929268 19.6004 1.39999 19.6004C12.2248 19.6004 21 10.8252 21 0.000427716C21 0.000297659 21 0.000557773 21 0.000427716L23.8 3.75447e-05Z" fill="#2F302C"/>
<path d="M0 18.1474C0.462056 18.1825 0.928934 18.2004 1.39999 18.2004C11.4516 18.2004 19.6 10.052 19.6 0.000427716C19.6 0.000557773 19.6 0.000297659 19.6 0.000427716L16.8 3.75447e-05C16.8 0.000167601 16.8 -9.25129e-05 16.8 3.75447e-05C16.8 8.50521 9.90517 15.4004 1.39999 15.4004C0.928069 15.4004 0.461104 15.3792 0 15.3376V18.1474Z" fill="#2F302C"/>
<path d="M0 13.9313C0.460466 13.977 0.927496 14.0004 1.39999 14.0004C9.13197 14.0004 15.4 7.7324 15.4 0.000427716C15.4 0.000297659 15.4 0.000557773 15.4 0.000427716L12.6 3.75447e-05C12.6 -9.2513e-05 12.6 0.000167601 12.6 3.75447e-05C12.6 6.18562 7.58558 11.2004 1.39999 11.2004C0.92587 11.2004 0.458629 11.171 0 11.1138V13.9313Z" fill="#2F302C"/>
<path d="M0 9.70117C0.457242 9.76658 0.924665 9.80042 1.39999 9.80042C6.81238 9.80042 11.2 5.41281 11.2 0.000427716C11.2 0.000557773 11.2 0.000297658 11.2 0.000427716L8.39999 3.75447e-05C8.39999 0.000167601 8.39999 -9.25133e-05 8.39999 3.75447e-05C8.39999 3.86603 5.26598 7.00042 1.39999 7.00042C0.920543 7.00042 0.452352 6.95222 0 6.86039V9.70117Z" fill="#2F302C"/>
<path d="M0 5.424C0.447466 5.53917 0.916576 5.60042 1.39999 5.60042C4.49279 5.60042 6.99999 3.09322 6.99999 0.000427716C6.99999 0.000297658 6.99999 0.000557772 6.99999 0.000427716L0 3.75447e-05V5.424Z" fill="#2F302C"/>
<path d="M28 8.76773C27.7147 9.6337 27.3884 10.481 27.0232 11.3073C27.3521 11.3461 27.6778 11.3952 28 11.4544V8.76773Z" fill="#2F302C"/>
<path d="M28 12.8806C27.4723 12.7734 26.9339 12.696 26.3865 12.6501C25.9036 13.602 25.3679 14.5226 24.7833 15.4081C24.9216 15.403 25.0605 15.4005 25.2 15.4005C26.1668 15.4005 27.105 15.523 28 15.7533V12.8806Z" fill="#2F302C"/>
<path d="M14.0866 28H11.2691C11.2234 27.5397 11.2 27.0728 11.2 26.6005C11.2 26.4786 11.2015 26.357 11.2046 26.2358C12.205 25.8618 13.1783 25.4322 14.1206 24.9508C14.0412 25.4892 14 26.04 14 26.6005C14 27.0744 14.0294 27.5415 14.0866 28Z" fill="#2F302C"/>
<path d="M28 17.2063C27.1128 16.9423 26.1729 16.8005 25.2 16.8005C24.6962 16.8005 24.2013 16.8385 23.718 16.9118C21.5445 19.7757 18.8325 22.2084 15.7327 24.059C15.5157 24.8695 15.4 25.7215 15.4 26.6005C15.4 27.0756 15.4338 27.5429 15.4992 28H18.3399C18.2482 27.5478 18.2 27.0798 18.2 26.6005C18.2 22.7345 21.334 19.6005 25.2 19.6005C26.1955 19.6005 27.1425 19.8083 28 20.183V17.2063Z" fill="#2F302C"/>
<path d="M28 21.7497C27.1763 21.2732 26.22 21.0005 25.2 21.0005C22.1072 21.0005 19.6 23.5077 19.6 26.6005C19.6 27.0837 19.6612 27.5527 19.7763 28H28V21.7497Z" fill="#2F302C"/>
<path d="M9.86273 28H7.053C7.03878 27.813 7.02738 27.6251 7.01886 27.4365C7.96424 27.244 8.89231 27.0037 9.80043 26.7185C9.80367 27.1501 9.82467 27.5775 9.86273 28Z" fill="#2F302C"/>
<path d="M5.64919 28C5.64175 27.8946 5.63515 27.789 5.62939 27.6831C4.71367 27.8219 3.78339 27.9163 2.84081 27.964C2.84153 27.976 2.84226 27.988 2.843 28H5.64919Z" fill="#2F302C"/>
<path d="M1.23418 28C0.820601 27.9976 0.409146 27.9862 0 27.9661V28H1.23418Z" fill="#2F302C"/>
</svg>
