<svg width="100" height="100" viewBox="0 0 100 100" fill="none" xmlns="http://www.w3.org/2000/svg">
<path d="M49 11.5C70.8152 11.5 88.5 29.1848 88.5 51C88.5 72.8152 70.8152 90.5 49 90.5C27.1848 90.5 9.5 72.8152 9.5 51C9.5 29.1848 27.1848 11.5 49 11.5Z" fill="#CBAC90" fill-opacity="0.29" stroke="black"/>
<path d="M95.1401 70.3131C90.4406 80.7565 82.2653 89.2473 72.0073 94.3388C61.7493 99.4303 50.0432 100.807 38.8836 98.2356C27.7241 95.6638 17.8015 89.3021 10.8066 80.2345C3.81166 71.1669 0.177216 59.9544 0.522504 48.5075C0.867793 37.0607 5.17145 26.0876 12.7002 17.4581C20.2289 8.82861 30.5169 3.07656 41.8112 1.18204C53.1055 -0.712486 64.7073 1.36775 74.6398 7.06828C84.5722 12.7688 92.2209 21.737 96.2824 32.4446" stroke="#BA936F" stroke-opacity="0.87"/>
</svg>
