<svg width="124" height="44" viewBox="0 0 124 44" fill="none" xmlns="http://www.w3.org/2000/svg">
<path d="M2.84 11.28C2.84 20.44 22.08 19.88 22.08 27.44C22.08 30.56 17.36 32.16 12.56 32.16C7.64 32.16 2.6 30.48 2.6 27.16C2.6 24.8 5.04 21.88 9 19.72L8.56 19.44C4.56 21.24 1.8 24.36 1.8 27.12C1.8 30.76 7.16 32.72 12.76 32.72C18.88 32.72 25.24 30.4 25.24 25.4C25.24 17.48 5.52 17.12 5.52 9.44C5.52 6 8.72 4.08 12.2 4.08C16.48 4.08 21.12 7 20.6 13.44L24.2 10.12C24.2 6.08 18.64 3.56 13.16 3.56C7.96 3.56 2.84 5.88 2.84 11.28ZM29.2472 32H33.1672V2H27.7672V2.36C29.1272 2.36 29.2472 3.08 29.2472 4.24V32ZM33.8472 16.36V17.04C35.3272 14.88 37.6072 13.16 40.2072 13.16C42.6072 13.16 44.4872 15.28 44.4872 18.64C44.4872 38.68 44.4872 12 44.4872 32H48.3672L48.3272 18.64C48.3272 13.92 45.1272 11.32 41.7672 11.32C38.2072 11.32 35.5272 14 33.8472 16.36ZM73.3812 12H66.3013C57.4613 12 52.8213 18.64 52.8213 24.36C52.8213 28.64 55.4213 32.4 60.9013 32.4C64.5413 32.4 67.3413 30.4 68.6613 26.36V25.2C67.9013 28.16 65.5013 30.16 62.4213 30.16C58.7013 30.16 56.9013 27.16 56.9013 23.64C56.9013 18.64 60.5413 12.6 67.3413 12.56H69.5013C69.5013 30.92 69.5013 12.56 69.5013 32H73.3812V12ZM83.6519 16.36V17.04C85.1319 14.88 87.4119 13.16 90.0119 13.16C92.4119 13.16 94.2919 15.28 94.2919 18.64C94.2919 38.68 94.2919 12 94.2919 32H98.1719L98.1319 18.64C98.1319 13.92 94.9319 11.32 91.5719 11.32C88.0119 11.32 85.3319 14 83.6519 16.36ZM82.9719 32V12H77.6119V12.36C78.9719 12.36 79.0919 13.12 79.0919 14.24V17.36C79.0919 28 79.0919 14.28 79.0919 32H82.9719ZM107.426 26.92V12.4H112.066V12H107.426V8.52H107.066C107.066 12 103.986 12 100.826 12V12.4H103.466V26.8C103.466 31.12 105.106 32.4 107.906 32.4C110.266 32.4 111.826 29.84 113.106 27.48L112.906 27.28C112.106 28.56 110.506 29.64 109.266 29.64C108.226 29.64 107.426 28.92 107.426 26.92ZM103.466 12.36C102.706 12.36 101.666 12.36 101.506 12.36H103.466ZM117.028 4.56C116.348 5.24 116.708 6.84 117.908 8.36L118.748 9.4L119.588 8.36C120.828 6.84 121.188 5.24 120.508 4.56C120.068 4.12 119.428 3.92 118.788 3.92C118.108 3.92 117.468 4.12 117.028 4.56ZM120.628 32V12H115.228V12.36C116.588 12.36 116.708 13.12 116.708 14.24V32H120.628Z" fill="#BA936F"/>
</svg>
