<svg width="60" height="60" viewBox="0 0 60 60" fill="none" xmlns="http://www.w3.org/2000/svg">
<path d="M30.0513 2.55469H29.9997C22.7211 2.55469 15.7406 5.4461 10.5938 10.5928C5.44708 15.7396 2.55566 22.7201 2.55566 29.9987C2.55566 37.2773 5.44708 44.2578 10.5938 49.4045C15.7406 54.5513 22.7211 57.4427 29.9997 57.4427C30.2384 57.4427 30.4673 57.3479 30.6361 57.1791C30.8048 57.0103 30.8997 56.7814 30.8997 56.5427C30.8997 56.304 30.8048 56.0751 30.6361 55.9063C30.4673 55.7375 30.2384 55.6427 29.9997 55.6427C23.1985 55.6427 16.6758 52.9409 11.8666 48.1317C7.05743 43.3225 4.35566 36.7999 4.35566 29.9987C4.35566 23.1975 7.05743 16.6748 11.8666 11.8656C16.6758 7.05646 23.1985 4.35469 29.9997 4.35469H30.0483C34.7303 4.36391 39.3204 5.65464 43.321 8.08695C47.3217 10.5193 50.5802 14.0003 52.7432 18.1527C54.9062 22.3051 55.8913 26.9705 55.5915 31.6429C55.2918 36.3153 53.7187 40.8165 51.0429 44.6585C50.6471 45.2245 50.1317 45.6966 49.5332 46.0413C48.9348 46.3861 48.2678 46.5951 47.5797 46.6535C46.8779 46.7151 46.1711 46.6222 45.509 46.3814C44.847 46.1406 44.2457 45.7577 43.7475 45.2597L42.8997 44.4089C43.2261 44.2139 43.5471 44.0057 43.8597 43.7813C44.4899 43.3395 45.0804 42.8434 45.6243 42.2987H45.6273C46.0908 41.8283 46.3499 41.1939 46.3479 40.5335C46.346 39.8731 46.0833 39.2402 45.6171 38.7725L40.9563 34.1171C40.4879 33.65 39.8534 33.3877 39.192 33.3877C38.5305 33.3877 37.896 33.65 37.4277 34.1171L36.7317 34.8107C36.5028 35.0378 36.2517 35.2414 35.9823 35.4185C35.0875 35.997 34.0218 36.2522 32.9621 36.1416C31.9024 36.0311 30.9123 35.5614 30.1563 34.8107L24.0657 28.7201C23.4932 28.142 23.1726 27.361 23.1737 26.5474C23.1748 25.7339 23.4976 24.9538 24.0717 24.3773L25.8813 22.5587C26.1135 22.3276 26.2979 22.053 26.4236 21.7504C26.5494 21.4479 26.6142 21.1235 26.6142 20.7959C26.6142 20.4683 26.5494 20.1439 26.4236 19.8413C26.2979 19.5388 26.1135 19.2641 25.8813 19.0331L21.2283 14.3807C20.9979 14.1468 20.7232 13.9613 20.4201 13.8351C20.1171 13.7089 19.7919 13.6445 19.4637 13.6457C18.8377 13.6433 18.2342 13.8793 17.7759 14.3057C17.7481 14.3275 17.7216 14.3509 17.6967 14.3759C17.1563 14.9169 16.6625 15.5026 16.2207 16.1267C14.4986 18.5275 13.5917 21.4172 13.6331 24.3714C13.6746 27.3257 14.6623 30.1888 16.4511 32.5403C19.5922 36.7036 23.2994 40.4078 27.4653 43.5455C29.8744 45.3714 32.8135 46.3615 35.8365 46.3655C37.6825 46.3634 39.5091 45.9889 41.2071 45.2645L42.4743 46.5335C43.1573 47.219 43.9829 47.7459 44.8924 48.0766C45.8019 48.4074 46.773 48.534 47.7369 48.4475C48.6875 48.3661 49.6087 48.0767 50.4351 47.5997C51.2614 47.1228 51.9728 46.4699 52.5189 45.6875C55.383 41.576 57.0669 36.7588 57.388 31.7583C57.709 26.7578 56.655 21.7648 54.3401 17.3208C52.0252 12.8768 48.5379 9.15128 44.2563 6.5483C39.9746 3.94532 35.062 2.5642 30.0513 2.55469ZM28.5513 42.1079C24.519 39.0727 20.9305 35.4891 17.8899 31.4609C16.4453 29.5606 15.5993 27.2732 15.4598 24.8903C15.3202 22.5073 15.8934 20.1368 17.1063 18.0809L20.4381 21.4133C20.6069 21.5821 20.8359 21.677 21.0747 21.677C21.3134 21.677 21.5424 21.5821 21.7113 21.4133C21.8801 21.2445 21.975 21.0155 21.975 20.7767C21.975 20.5379 21.8801 20.3089 21.7113 20.1401L18.1503 16.5767C18.3903 16.2767 18.6423 15.9869 18.9129 15.7121C18.9369 15.6933 18.96 15.6733 18.9819 15.6521C19.1128 15.5261 19.2877 15.456 19.4695 15.4566C19.6513 15.4573 19.8256 15.5287 19.9557 15.6557L24.6117 20.3117C24.6766 20.3762 24.7281 20.453 24.7631 20.5375C24.7981 20.6221 24.816 20.7128 24.8157 20.8043C24.8156 20.8945 24.7975 20.9838 24.7624 21.0669C24.7274 21.1501 24.6761 21.2254 24.6117 21.2885L22.7907 23.1149C21.8829 24.0297 21.3735 25.2662 21.3735 26.555C21.3735 27.8437 21.8829 29.0803 22.7907 29.9951L28.8837 36.0833C29.8427 37.034 31.0747 37.6613 32.4077 37.8777C33.7406 38.094 35.1078 37.8885 36.3183 37.2899L39.9783 40.9499C40.148 41.1138 40.3753 41.2045 40.6113 41.2025C40.8473 41.2004 41.073 41.1058 41.2399 40.9389C41.4068 40.7721 41.5014 40.5463 41.5035 40.3103C41.5055 40.0744 41.4148 39.847 41.2509 39.6773L37.8237 36.2501C37.8837 36.1949 37.9491 36.1427 38.0037 36.0857L38.6997 35.3867C38.8303 35.2564 39.0072 35.1832 39.1917 35.1832C39.3761 35.1832 39.5531 35.2564 39.6837 35.3867L44.3445 40.0421C44.4747 40.1726 44.5483 40.3493 44.5492 40.5337C44.5501 40.7181 44.4783 40.8955 44.3493 41.0273C43.8778 41.499 43.3658 41.9285 42.8193 42.3107C40.732 43.8083 38.2193 44.5968 35.6507 44.5603C33.082 44.5238 30.5927 43.6642 28.5489 42.1079H28.5513Z" fill="black"/>
</svg>
