<svg width="60" height="60" viewBox="0 0 60 60" fill="none" xmlns="http://www.w3.org/2000/svg">
<path d="M50.4872 46.9545H9.51246C8.18061 46.953 6.90375 46.4232 5.96203 45.4814C5.02032 44.5396 4.49066 43.2627 4.48926 41.9308V16.6252C4.49066 15.2934 5.02032 14.0165 5.96203 13.0747C6.90375 12.1329 8.18061 11.6031 9.51246 11.6016H50.4872C51.819 11.6031 53.0959 12.1329 54.0376 13.0747C54.9793 14.0165 55.509 15.2934 55.5104 16.6252V41.9308C55.509 43.2627 54.9793 44.5396 54.0376 45.4814C53.0959 46.4232 51.819 46.953 50.4872 46.9545ZM9.51246 13.5216C8.68963 13.5225 7.90076 13.8497 7.31898 14.4316C6.73719 15.0135 6.41002 15.8024 6.40926 16.6252V41.9308C6.41002 42.7537 6.73719 43.5426 7.31898 44.1245C7.90076 44.7063 8.68963 45.0336 9.51246 45.0345H50.4872C51.31 45.0336 52.0989 44.7063 52.6807 44.1245C53.2624 43.5426 53.5896 42.7537 53.5904 41.9308V16.6252C53.5896 15.8024 53.2624 15.0135 52.6807 14.4316C52.0989 13.8497 51.31 13.5225 50.4872 13.5216H9.51246Z" fill="black"/>
<path d="M30 34.9273C29.766 34.9274 29.54 34.842 29.3645 34.6873L6.22852 14.2642L7.49908 12.8242L30 32.6885L52.502 12.8266L53.7725 14.2666L30.6365 34.6897C30.4605 34.844 30.2341 34.9286 30 34.9273Z" fill="black"/>
<path d="M5.70605 43.9375L21.2486 26.2284L22.6924 27.4956L7.14989 45.2047L5.70605 43.9375Z" fill="black"/>
<path d="M37.3564 27.4785L38.8003 26.2113L54.3431 43.9207L52.8993 45.1879L37.3564 27.4785Z" fill="black"/>
</svg>
